<?xml version="1.0" encoding="UTF-8"?>
<!DOCTYPE svg PUBLIC "-//W3C//DTD SVG 1.1//EN" "http://www.w3.org/Graphics/SVG/1.1/DTD/svg11.dtd">
<!-- Creator: CorelDRAW 2020 (64-Bit) -->
<svg xmlns="http://www.w3.org/2000/svg" xml:space="preserve" width="19.5301mm" height="18.5208mm" version="1.1" style="shape-rendering:geometricPrecision; text-rendering:geometricPrecision; image-rendering:optimizeQuality; fill-rule:evenodd; clip-rule:evenodd"
viewBox="0 0 3179.55 3015.23"
 xmlns:xlink="http://www.w3.org/1999/xlink"
 xmlns:xodm="http://www.corel.com/coreldraw/odm/2003">
 <defs>
  <style type="text/css">
   <![CDATA[
    .fil0 {fill:#83B3D3;fill-rule:nonzero}
   ]]>
  </style>
 </defs>
 <g id="Слой_x0020_1">
  <metadata id="CorelCorpID_0Corel-Layer"/>
  <g id="_2142832231408">
   <path class="fil0" d="M3010.92 2011.59l-456.6 0 -1925.43 0 -452.28 0c-99.07,0 -176.61,81.84 -176.61,185.22l0 150.76c0,103.38 81.84,185.22 176.61,185.22l38.76 0 0 47.39c0,236.91 185.22,435.06 413.52,435.06l1921.13 0c228.28,0 413.52,-193.85 413.52,-435.06l0 -47.39 38.76 0c99.07,0 176.61,-81.84 176.61,-185.22l0 -150.76c8.61,-99.08 -73.23,-185.22 -168,-185.22zm-168 568.59c0,167.98 -129.22,301.51 -288.6,301.51l-1925.43 0c-159.37,0 -288.6,-137.83 -288.6,-301.51l0 -47.39 2502.63 0 0 47.39zm219.69 -232.61c0,30.15 -25.85,55.99 -51.69,55.99l-43.08 0 -124.92 0 -2498.32 0 -129.23 0 -43.08 0c-30.15,0 -51.69,-25.84 -51.69,-55.99l0 -150.76c0,-30.15 25.85,-56 51.69,-56l159.38 0 297.21 0 1921.13 0 297.21 0 159.37 0c30.15,0 51.69,25.85 51.69,56 4.31,0 4.31,150.76 4.31,150.76z"/>
   <polygon class="fil0" points="671.97,1654.06 904.58,1830.66 1132.88,1654.06 1361.17,1830.66 1589.46,1654.06 1822.05,1830.66 2050.35,1654.06 2278.65,1830.66 2511.26,1654.06 2739.54,1830.66 3006.62,1628.22 2933.39,1520.53 2739.54,1666.98 2511.26,1490.39 2278.65,1666.98 2050.35,1490.39 1822.05,1666.98 1589.46,1490.39 1361.17,1666.98 1132.88,1490.39 904.58,1666.98 671.97,1490.39 443.69,1666.98 249.84,1520.53 176.61,1628.22 443.69,1830.66 "/>
   <path class="fil0" d="M344.6 1356.86l2494.02 0 124.92 0c0,-25.85 4.3,-51.69 4.3,-81.84 0,-17.22 0,-34.47 0,-51.69 -30.15,-676.28 -633.2,-1223.33 -1374.08,-1223.33 -745.18,0 -1348.23,547.05 -1378.38,1227.63 0,17.24 0,34.47 0,51.69 0,25.85 0,51.69 4.31,77.54l124.92 0zm1249.15 -1227.63c671.97,0 1223.33,486.75 1249.17,1098.4l-2498.32 0c25.84,-607.35 577.2,-1098.4 1249.15,-1098.4z"/>
   <path class="fil0" d="M1593.75 745.2c45.21,0 81.84,-38.57 81.84,-86.16 0,-47.57 -36.63,-86.14 -81.84,-86.14 -45.19,0 -81.84,38.57 -81.84,86.14 0,47.59 36.65,86.16 81.84,86.16z"/>
   <path class="fil0" d="M1257.79 525.51c45.19,0 81.84,-38.57 81.84,-86.14 0,-47.59 -36.65,-86.16 -81.84,-86.16 -45.21,0 -81.86,38.57 -81.86,86.16 0,47.57 36.65,86.14 81.86,86.14z"/>
   <path class="fil0" d="M1925.43 525.51c45.19,0 81.84,-38.57 81.84,-86.14 0,-47.59 -36.65,-86.16 -81.84,-86.16 -45.19,0 -81.84,38.57 -81.84,86.16 0,47.57 36.65,86.14 81.84,86.14z"/>
  </g>
 </g>
</svg>
