<?xml version="1.0" encoding="UTF-8"?>
<!DOCTYPE svg PUBLIC "-//W3C//DTD SVG 1.1//EN" "http://www.w3.org/Graphics/SVG/1.1/DTD/svg11.dtd">
<!-- Creator: CorelDRAW 2020 (64-Bit) -->
<svg xmlns="http://www.w3.org/2000/svg" xml:space="preserve" width="19.8758mm" height="19.2143mm" version="1.1" style="shape-rendering:geometricPrecision; text-rendering:geometricPrecision; image-rendering:optimizeQuality; fill-rule:evenodd; clip-rule:evenodd"
viewBox="0 0 653.97 632.2"
 xmlns:xlink="http://www.w3.org/1999/xlink"
 xmlns:xodm="http://www.corel.com/coreldraw/odm/2003">
 <defs>
  <style type="text/css">
   <![CDATA[
    .fil0 {fill:#83B3D3}
   ]]>
  </style>
 </defs>
 <g id="Слой_x0020_1">
  <metadata id="CorelCorpID_0Corel-Layer"/>
  <path class="fil0" d="M326.98 0l-326.98 326.98 18.47 18.46 64.76 -64.76 0 325.4 -34.82 0 0 26.12 565.85 0 0 -26.12 -43.53 0 0 -325.4 64.76 64.76 18.47 -18.46 -83.23 -83.23 0 -238.35 -121.88 0 0 116.47 -121.87 -121.87zm147.99 147.99l69.64 69.64 0 -186.11 -69.64 0 0 116.47zm69.64 106.58l-217.63 -217.64 -217.64 217.64 0 351.51 435.27 0 0 -351.51zm-287.28 107.76l0 208.93 139.29 0 0 -208.93 -139.29 0zm26.12 182.81l0 -156.7 87.05 0 0 156.7 -87.05 0zm-139.29 -182.81l26.12 0 0 34.82 -26.12 0 0 -34.82zm78.35 0l-26.12 0 0 34.82 26.12 0 0 -34.82zm-78.35 52.23l26.12 0 0 34.82 -26.12 0 0 -34.82zm78.35 0l-26.12 0 0 34.82 26.12 0 0 -34.82zm208.93 -52.23l26.12 0 0 34.82 -26.12 0 0 -34.82zm78.35 0l-26.12 0 0 34.82 26.12 0 0 -34.82zm-78.35 52.23l26.12 0 0 34.82 -26.12 0 0 -34.82zm78.35 0l-26.12 0 0 34.82 26.12 0 0 -34.82zm-226.34 -174.11c0,-24.04 19.49,-43.53 43.53,-43.53 24.04,0 43.52,19.49 43.52,43.53 0,24.04 -19.49,43.53 -43.52,43.53 -24.04,0 -43.53,-19.49 -43.53,-43.53zm43.53 -69.64c-38.46,0 -69.64,31.18 -69.64,69.64 0,38.46 31.18,69.64 69.64,69.64 38.46,0 69.64,-31.18 69.64,-69.64 0,-38.46 -31.18,-69.64 -69.64,-69.64z"/>
 </g>
</svg>
