<?xml version="1.0" encoding="UTF-8"?>
<!DOCTYPE svg PUBLIC "-//W3C//DTD SVG 1.1//EN" "http://www.w3.org/Graphics/SVG/1.1/DTD/svg11.dtd">
<!-- Creator: CorelDRAW 2020 (64-Bit) -->
<svg xmlns="http://www.w3.org/2000/svg" xml:space="preserve" width="16.9333mm" height="20.0942mm" version="1.1" style="shape-rendering:geometricPrecision; text-rendering:geometricPrecision; image-rendering:optimizeQuality; fill-rule:evenodd; clip-rule:evenodd"
viewBox="0 0 456.58 541.81"
 xmlns:xlink="http://www.w3.org/1999/xlink"
 xmlns:xodm="http://www.corel.com/coreldraw/odm/2003">
 <defs>
  <style type="text/css">
   <![CDATA[
    .fil0 {fill:#83B3D3;fill-rule:nonzero}
   ]]>
  </style>
 </defs>
 <g id="Слой_x0020_1">
  <metadata id="CorelCorpID_0Corel-Layer"/>
  <path class="fil0" d="M435.89 160.14l-0.71 0 -176.21 0c98.45,-49.22 106.3,-80.62 102.73,-97.74 -8.56,-28.54 -40.66,-49.94 -71.34,-38.52 -39.95,14.98 -50.65,74.2 -61.35,117 -14.27,-43.52 -27.11,-98.45 -58.5,-126.28 -9.28,-7.85 -22.12,-16.41 -41.38,-14.27 -28.54,2.85 -69.91,38.52 -53.51,78.47 16.41,38.52 69.2,62.78 104.16,82.04l-156.95 0 -2.14 0c-11.41,0 -20.69,9.28 -20.69,20.69l0 80.62c0,11.41 9.28,20.69 20.69,20.69l2.14 0 0 237.56 0 17.12 0 4.28 412.35 0 0 -3.57 0 -17.84 0 -238.28 0.71 0c11.41,0 20.69,-9.27 20.69,-20.69l0 -80.62c0,-11.41 -9.28,-20.69 -20.69,-20.69zm-133.41 -118.42c14.98,-2.14 35.67,9.27 37.81,22.83 2.85,19.98 -24.26,37.81 -36.38,45.66 -17.84,12.13 -34.96,18.55 -52.08,29.25 6.42,-26.4 17.84,-92.74 50.65,-97.74zm-163.37 71.34c-15.7,-10.7 -46.37,-31.39 -45.66,-55.65 0.71,-25.68 40.66,-47.08 62.78,-27.82 27.82,24.25 40.66,79.19 50.65,118.42 -22.83,-10.7 -44.94,-19.97 -67.77,-34.96zm42.8 407.35l-138.4 0 0 -238.28 138.4 0 0 238.28zm0 -260.39l-160.52 0 0 -78.47 160.52 0 0 78.47zm72.77 0l0 21.4 0 238.99 -51.37 0 0 -238.28 0 -21.4 0 -78.47 51.37 0 0 77.76zm159.09 260.39l-138.4 0 0 -238.28 138.4 0 0 238.28zm20.69 -260.39l-159.09 0 0 -78.47 159.09 0 0 78.47z"/>
 </g>
</svg>
